<svg xmlns="http://www.w3.org/2000/svg" xmlns:xlink="http://www.w3.org/1999/xlink" width="95" height="35" viewBox="-122 48 95 35"><path fill="#006BB3" d="M-36 58.7c-3.6 0-6.7 2.9-6.9 6.5-.3 4.3 3.5 7.9 7.7 7.5 3.5-.4 6.4-3.5 6.2-7.2-.2-3.8-3.3-6.8-7-6.8m3.6 6.9c0 1.7-1.4 3.3-3 3.5-2.1.3-4-1.4-4-3.5 0-2 1.8-3.6 3.8-3.5 1.7.1 3.2 1.7 3.2 3.5"/><defs><path id="a" d="M-111 68.7c0 3.1.7 5.9 2 8.5l18-10.5c1.2-.7 1.2-1.8 0-2.5l-14.9-8.5c-3.3 3.3-5.1 8-5.1 13"/></defs><clipPath id="b"><use xlink:href="#a" overflow="visible"/></clipPath><linearGradient id="c" gradientUnits="userSpaceOnUse" x1="-494.16" y1="453.257" x2="-494.11" y2="453.257" gradientTransform="scale(-355.1016 355.1016) rotate(-18.435 -1642.899 -1296.683)"><stop offset="0" stop-color="#e1dd1c"/><stop offset=".116" stop-color="#d5d91f"/><stop offset=".327" stop-color="#b5d027"/><stop offset=".608" stop-color="#81c034"/><stop offset=".946" stop-color="#3aab46"/><stop offset=".999" stop-color="#2ea749"/><stop offset="1" stop-color="#2ea749"/></linearGradient><path clip-path="url(#b)" fill="url(#c)" d="M-91.9 83.5l-25.7-8.4 8.7-25.8 25.4 8.6z"/><defs><path id="d" d="M-120 66.2V81c0 1.4 1 1.9 2.2 1.3l16.3-9.5c-3.5-4.2-8.7-6.9-14.5-6.9-1.4 0-2.7.1-4 .3"/></defs><clipPath id="e"><use xlink:href="#d" overflow="visible"/></clipPath><linearGradient id="f" gradientUnits="userSpaceOnUse" x1="-492.675" y1="453.052" x2="-492.625" y2="453.052" gradientTransform="scale(342.064 -342.064) rotate(28.237 654.54 1205.079)"><stop offset="0" stop-color="#28aae1"/><stop offset=".932" stop-color="#523491"/></linearGradient><path clip-path="url(#e)" fill="url(#f)" d="M-127.1 69.7l21.5-11.6 11.2 21-21.5 11.5z"/><g><defs><path id="g" d="M-120 50v10.8h.6c4.7 0 8.9-2.7 10.8-6.7l-9.3-5.4c-.4-.2-.6-.3-1-.3-.7.1-1.1.6-1.1 1.6"/></defs><clipPath id="h"><use xlink:href="#g" overflow="visible"/></clipPath><linearGradient id="i" gradientUnits="userSpaceOnUse" x1="-495.03" y1="453.492" x2="-494.981" y2="453.492" gradientTransform="scale(-374.5653 374.5653) rotate(-28.474 -1140.726 -749.269)"><stop offset=".163" stop-color="#ea185b"/><stop offset="1" stop-color="#783237"/></linearGradient><path clip-path="url(#h)" fill="url(#i)" d="M-111.2 65.8l-14-7.7 7.8-14.4 14 7.6z"/></g><g><defs><path id="j" d="M-111.2 54.5c0 5.6 4.5 10.2 10.2 10.2 2.5 0 4.8-.9 6.6-2.5l-16.5-9.5c-.3.6-.3 1.2-.3 1.8"/></defs><clipPath id="k"><use xlink:href="#j" overflow="visible"/></clipPath><linearGradient id="l" gradientUnits="userSpaceOnUse" x1="-493.208" y1="452.397" x2="-493.159" y2="452.397" gradientTransform="scale(563.95 -563.95) rotate(-5.964 -4589.558 -4505.425)"><stop offset="0" stop-color="#fbed1f"/><stop offset=".127" stop-color="#fae31f"/><stop offset=".344" stop-color="#f8c720"/><stop offset=".625" stop-color="#f49b22"/><stop offset=".957" stop-color="#ef5d25"/><stop offset=".999" stop-color="#ee5525"/></linearGradient><path clip-path="url(#k)" fill="url(#l)" d="M-111 51l17.7 1.9-1.3 13.5-18-1.8z"/></g><path fill="#076CB3" d="M-48.6 60.3v6l-6.6-7.3c-1-1.1-3-.7-3 1.5v10.4c0 2.3 3.5 2.3 3.5 0v-6.4s5.5 6.4 6.6 7.5c1.2 1.2 3 .5 3-.9V60.3c-.1-2.5-3.5-2.5-3.5 0z"/><path fill="#006BB3" d="M-62.6 69.1c.5 0 .9.2 1.2.5.4.4.5.7.5 1.2 0 .9-.7 1.7-1.7 1.7h-7.5c-.9 0-1.7-.7-1.7-1.7V60.1c0-.7.5-1.4 1.1-1.5.2-.1.5-.1.6-.1h7.5c.5 0 .9.2 1.2.5.4.4.5.7.5 1.2s-.2.9-.5 1.2c-.3.3-.7.5-1.2.5h-5.7v1.8h3.9c.9 0 1.7.7 1.7 1.7 0 .9-.7 1.7-1.7 1.7h-3.9v2h5.7zM-74.6 69.5l-4.5-4c1.2-1.1 2.3-2.1 3.5-3.2.5-.4 1-.8 1.3-1.3.9-1.6-1.3-3.4-2.6-2.1l-3 2.7c-1 .9-2.1 1.7-3 2.7v-3.9c0-.8-.3-1.5-1.1-1.9-1.1-.5-2.4.4-2.4 1.5v10c0 1.1.3 2.5 1.7 2.5.9 0 1.7-.8 1.7-1.7v-4.2c0 .1.1.1.2.2 1.1 1 2.2 2 3.3 2.9.6.6 1.3 1.2 2 1.8.5.5 1 1 1.7 1 1.5 0 2.3-1.9 1.2-3"/></svg>